<svg width="190" height="40" fill="none" xmlns="http://www.w3.org/2000/svg"><g clip-path="url(#clip0_669_676)"><mask id="a" style="mask-type:luminance" maskUnits="userSpaceOnUse" x="0" y="0" width="190" height="40"><path d="M190 0H0v40h190V0z" fill="#fff"/></mask><g mask="url(#a)"><path d="M26.174 29c-1.066 0-1.983-.1-2.75-.3-.75-.216-1.392-.466-1.925-.75-.516-.3-.975-.583-1.375-.85L22 24.875c.817.433 1.909.65 3.275.65h3.175c-.117-.4-.25-.8-.4-1.2-.15-.416-.333-.858-.55-1.325a29.11 29.11 0 00-.725-1.6l4.075-2.725c.15.85.259 1.834.325 2.95a23.388 23.388 0 01-.025 3.575 16.416 16.416 0 01-.725 3.8h-4.25zm-10 0v-3.475H19.1a5.3 5.3 0 00.25-1.125c.067-.433.117-.883.15-1.35.034-.483.042-.975.025-1.475L23.7 20.15a41.685 41.685 0 01-.65 2.775 16.2 16.2 0 01-.7 2.15 17.773 17.773 0 01-.925 1.875c-.333.617-.75 1.3-1.25 2.05h-4zm17.15 0c-.8 0-1.525-.067-2.175-.2a8.872 8.872 0 01-1.7-.525 19.25 19.25 0 01-1.325-.675l1.35-2.65c.2.1.417.184.65.25.25.067.5.125.75.175.25.05.517.092.8.125.284.017.575.025.875.025h1V29h-.225zM8.2 35.175c-1.4 0-2.591-.183-3.575-.55-.966-.367-1.75-.858-2.35-1.475a5.586 5.586 0 01-1.3-2.075 7.034 7.034 0 01-.4-2.325c0-.683.092-1.5.275-2.45a15.2 15.2 0 01.925-2.975l2.95.925c-.266.8-.458 1.5-.575 2.1a8.391 8.391 0 00-.175 1.575c0 .834.184 1.534.55 2.1.384.567.925.992 1.625 1.275.717.284 1.567.425 2.55.425a5.88 5.88 0 001.6-.225 5.11 5.11 0 001.45-.6c.45-.266.808-.591 1.075-.975.267-.383.4-.825.4-1.325 0-.35-.05-.767-.15-1.25-.1-.483-.267-1.058-.5-1.725a21.627 21.627 0 00-1-2.325l2.75-3.325c.633 1.15 1.092 2.217 1.375 3.2.3.967.492 1.817.575 2.55.1.733.15 1.333.15 1.8 0 1.584-.333 2.942-1 4.075-.666 1.15-1.617 2.033-2.85 2.65-1.216.617-2.675.925-4.375.925zM33.544 29v-3.475h4.425c-.083-.766-.316-1.541-.7-2.325-.366-.8-.833-1.616-1.4-2.45l3.15-3.225c.5.984.934 2.042 1.3 3.175.367 1.134.558 2.384.575 3.75.034 1.35-.25 2.867-.85 4.55h-6.5zm0-3.475h.25V29h-.25c-.5 0-.75-.583-.75-1.75 0-1.15.25-1.725.75-1.725zm4.025-9.8l-2.425-2.45 2.325-2.45 2.425 2.45-2.325 2.45zm9.936 19.025c-.816 0-1.666-.142-2.55-.425-.883-.267-1.716-.742-2.5-1.425l1.15-2.3c.534.167 1.075.3 1.625.4a7.95 7.95 0 001.6.175c1.034 0 1.892-.2 2.575-.6.7-.383 1.225-.908 1.575-1.575h-1.475c-1.05 0-1.941-.1-2.675-.3-.716-.216-1.308-.517-1.775-.9a3.344 3.344 0 01-.975-1.35c-.2-.517-.3-1.083-.3-1.7 0-.916.142-1.758.425-2.525.3-.767.692-1.433 1.175-2 .5-.567 1.067-1 1.7-1.3a4.57 4.57 0 012.025-.475c1.034 0 1.917.25 2.65.75.734.483 1.325 1.167 1.775 2.05.45.867.759 1.867.925 3 .034.183.067.384.1.6.034.217.05.442.05.675h1.4V29H54.28a9.09 9.09 0 01-.825 2.025 7.627 7.627 0 01-1.375 1.85 6.116 6.116 0 01-1.975 1.35c-.75.35-1.616.525-2.6.525zm1.925-9.225h1.95l-.05-.4a2.498 2.498 0 00-.075-.375 4.964 4.964 0 00-.5-1.475c-.233-.433-.508-.766-.825-1a1.655 1.655 0 00-1.05-.375c-.333 0-.641.1-.925.3a2.4 2.4 0 00-.675.825 2.48 2.48 0 00-.25 1.125c0 .267.067.509.2.725.15.2.4.358.75.475.35.117.834.175 1.45.175zm16.9-1.175c.517.483 1.092.8 1.725.95a9.21 9.21 0 002.075.225V29c-.967 0-1.908-.2-2.825-.6-.9-.4-1.633-1.058-2.2-1.975l1.225-2.075zm-8.725-8.45l7.175-5.95 2.3 2.75-7.125 5.9.525-1.4c1.983.567 3.508 1.409 4.575 2.525 1.083 1.1 1.775 2.433 2.075 4 .317 1.567.317 3.325 0 5.275H56.005v-3.475h8.075a6.252 6.252 0 00-.975-2.425c-.483-.75-1.175-1.4-2.075-1.95-.883-.566-2.025-.983-3.425-1.25v-4zm-1.6 9.625h.25V29h-.25c-.5 0-.75-.583-.75-1.75 0-1.15.25-1.725.75-1.725zM70.141 29v-3.475h3.875c.1-.266.191-.65.275-1.15.083-.5.15-1.017.2-1.55.067-.55.1-1.025.1-1.425l4.15-1.45a86.357 86.357 0 01-.85 3.325 23.275 23.275 0 01-1.025 2.925c-.383.917-.875 1.85-1.475 2.8h-5.25zm10.15 0c-1.067 0-1.983-.1-2.75-.3-.767-.216-1.417-.466-1.95-.75-.517-.3-.975-.583-1.375-.85l1.85-2.225c.266.15.566.275.9.375a10.477 10.477 0 002.4.275h1.525V29h-.6zm-10.15-3.475h.25V29h-.25c-.5 0-.75-.583-.75-1.75 0-1.15.25-1.725.75-1.725zm4.425-7.6l-2.425-2.45 2.275-2.45 2.425 2.45-2.275 2.45zm4.35 0l-2.425-2.45 2.325-2.45 2.425 2.45-2.325 2.45zM80.883 29v-3.475h3.325c.1-.266.192-.65.275-1.15.083-.5.15-1.017.2-1.55.067-.55.1-1.025.1-1.425l4.15-1.45a86.357 86.357 0 01-.85 3.325 23.275 23.275 0 01-1.025 2.925c-.383.917-.875 1.85-1.475 2.8h-4.7zm9.8 0c-1.067 0-1.983-.1-2.75-.3-.75-.216-1.392-.466-1.925-.75-.517-.3-.975-.583-1.375-.85l1.875-2.225c.267.15.567.275.9.375.333.084.7.15 1.1.2.417.05.842.075 1.275.075h.975V29h-.075zm-9.8-3.475h.25V29h-.25c-.5 0-.75-.583-.75-1.75 0-1.15.25-1.725.75-1.725zm6.05-7.6l-2.425-2.45 2.325-2.45 2.425 2.45-2.325 2.45zM107.421 29c-1.067 0-1.983-.1-2.75-.3-.75-.216-1.392-.466-1.925-.75-.517-.3-.975-.583-1.375-.85l1.85-2.225c.85.433 1.942.65 3.275.65h3.175c-.133-.45-.275-.875-.425-1.275-.15-.416-.325-.85-.525-1.3-.183-.45-.417-.966-.7-1.55l4.075-2.725c.133 1.017.242 2.084.325 3.2.083 1.1.075 2.242-.025 3.425-.083 1.183-.325 2.417-.725 3.7h-4.25zm-16.675 0v-3.475h2.7a8.6 8.6 0 00.25-1.125c.084-.433.134-.883.15-1.35a10.9 10.9 0 000-1.475l4.175-1.425a41.748 41.748 0 01-.65 2.775 16.2 16.2 0 01-.7 2.15 14.83 14.83 0 01-.9 1.875c-.333.617-.75 1.3-1.25 2.05h-3.775zm8.05 0c-1.133 0-2.108-.1-2.925-.3-.8-.216-1.458-.458-1.975-.725-.516-.283-.908-.533-1.175-.75l1.425-2.5c.45.25.975.45 1.575.6a9.59 9.59 0 002.025.2h2.7c.1-.266.183-.616.25-1.05.083-.433.133-.9.15-1.4.033-.5.042-1 .025-1.5l4.2-1.425a52.583 52.583 0 01-.675 2.775c-.217.784-.45 1.5-.7 2.15a14.83 14.83 0 01-.9 1.875c-.35.617-.775 1.3-1.275 2.05h-2.725zm15.875 0c-.817 0-1.558-.067-2.225-.2a8.78 8.78 0 01-1.725-.525c-.5-.233-.942-.458-1.325-.675l1.375-2.65c.2.1.417.184.65.25a9.04 9.04 0 001.55.3c.283.017.575.025.875.025h.975V29h-.15zm-23.925-3.475h.25V29h-.25c-.5 0-.75-.583-.75-1.75 0-1.15.25-1.725.75-1.725zM114.818 29v-3.475h4.925c-.083-.766-.316-1.541-.7-2.325a16.81 16.81 0 00-1.4-2.45l3.15-3.225c.5.984.934 2.042 1.3 3.175.367 1.134.559 2.384.575 3.75.017 1.35-.266 2.867-.85 4.55h-7zm0-3.475h.25V29h-.25c-.5 0-.75-.583-.75-1.75 0-1.15.25-1.725.75-1.725zm2.425 9.975l-2.425-2.45 2.275-2.45 2.425 2.45-2.275 2.45zm4.35 0l-2.425-2.45 2.325-2.45 2.425 2.45-2.325 2.45zm4.975-.325c-.45 0-.942-.058-1.475-.175a7.38 7.38 0 01-1.55-.525l.975-2.9c.266.05.516.084.75.1.233.034.458.05.675.05.966 0 1.8-.192 2.5-.575a3.9 3.9 0 001.625-1.575c.4-.683.6-1.491.6-2.425 0-.433-.1-.875-.3-1.325-.2-.466-.542-1.025-1.025-1.675-.467-.666-1.134-1.508-2-2.525l2.75-3.4c.883 1.2 1.6 2.3 2.15 3.3.55 1 .95 1.942 1.2 2.825a9.43 9.43 0 01.375 2.625 9.42 9.42 0 01-.25 2.075c-.15.75-.4 1.483-.75 2.2a7.536 7.536 0 01-1.375 1.95c-.55.6-1.234 1.075-2.05 1.425-.817.367-1.759.55-2.825.55z" fill="#000"/><path d="M153.977 35.39h8.649V17.893l-8.649 8.486v9.01z" fill="#FF5A30"/><path d="M153.977 35.39h8.649V17.893l-8.649 8.486v9.01zm32.868 0h-8.65V17.893l8.65 8.486v9.01z" fill="#FF5A30"/><path d="M153.977 35.39h8.649V17.893l-8.649 8.486v9.01z" fill="#FF5A30"/><path d="M162.626 2.655h-8.649v17.497l8.649-8.486V2.655zm9.774 0h-3.976v13.108h3.976V2.655z" fill="#000"/><path d="M189.824 37.342H151v2.655h38.824v-2.655z" fill="#FF5A30"/><path d="M189.824 0H151v2.655h38.824V0zm-4.816 2.655h-.738v7.14h.738v-7.14zm-29.191 0h-.739v2.588h.739V2.655z" fill="#000"/><path d="M155.08 4.519v.725h29.191v-.725H155.08zm30.625 5.276h-2.1v2.54h2.1v-2.54zm-1.384 2.544l-1.425 1.974 1.738 1.45 1.564-1.42-1.455.736-1.195-.862 1.372-1.878h-.599z" fill="#000"/><path d="M164.783 17.893V35.39h11.258V17.893h-11.258zm3.641 13.363h-1.621v-2.334h1.621v2.334zm0-8.997h-1.621v-2.333h1.621v2.333zm2.8 4.382h-1.62v-2.333h1.62v2.333zm2.899 4.615h-1.621v-2.334h1.621v2.334zm0-8.997h-1.621v-2.333h1.621v2.333z" fill="#FF5A30"/></g></g><defs><clipPath id="clip0_669_676"><path fill="#fff" d="M0 0h190v40H0z"/></clipPath></defs></svg>