<svg width="198" height="40" fill="none" xmlns="http://www.w3.org/2000/svg"><path d="M2.977 35.39h8.65V17.893l-8.65 8.486v9.01z" fill="#FF5A30"/><path d="M2.977 35.39h8.65V17.893l-8.65 8.486v9.01zm32.868 0h-8.65V17.893l8.65 8.486v9.01z" fill="#FF5A30"/><path d="M2.977 35.39h8.65V17.893l-8.65 8.486v9.01z" fill="#FF5A30"/><path d="M11.626 2.655h-8.65v17.497l8.65-8.486V2.655zm9.774 0h-3.976v13.108H21.4V2.655z" fill="#fff"/><path d="M38.824 37.342H0v2.655h38.824v-2.655z" fill="#FF5A30"/><path d="M38.824 0H0v2.655h38.824V0zm-4.816 2.655h-.739v7.14h.74v-7.14zm-29.191 0h-.739v2.588h.739V2.655z" fill="#fff"/><path d="M4.08 4.519v.725h29.19v-.725H4.08zm30.625 5.276h-2.1v2.54h2.1v-2.54zm-1.384 2.544l-1.424 1.974 1.737 1.45 1.564-1.42-1.455.736-1.195-.862 1.372-1.878h-.599z" fill="#fff"/><path d="M13.783 17.893V35.39h11.258V17.893H13.783zm3.641 13.363h-1.62v-2.334h1.62v2.334zm0-8.997h-1.62v-2.333h1.62v2.333zm2.8 4.382h-1.62v-2.333h1.62v2.333zm2.899 4.615h-1.621v-2.334h1.62v2.334zm0-8.997h-1.621v-2.333h1.62v2.333z" fill="#FF5A30"/><path d="M55.475 28V10.5h7.6c1.1 0 2.058.192 2.875.575.816.383 1.45.925 1.9 1.625.45.7.675 1.525.675 2.475v.3c0 1.05-.25 1.9-.75 2.55a4.41 4.41 0 01-1.85 1.425v.45c.666.033 1.183.267 1.55.7.366.417.55.975.55 1.675V28h-3.3v-5.25c0-.4-.109-.725-.325-.975-.2-.25-.542-.375-1.025-.375h-4.6V28h-3.3zm3.3-9.6h3.95c.783 0 1.391-.208 1.825-.625.45-.433.675-1 .675-1.7v-.25c0-.7-.217-1.258-.65-1.675-.434-.433-1.05-.65-1.85-.65h-3.95v4.9zm18.245 9.95c-1.233 0-2.325-.258-3.274-.775a5.76 5.76 0 01-2.2-2.225c-.517-.967-.776-2.1-.776-3.4v-.3c0-1.3.259-2.425.776-3.375a5.384 5.384 0 012.174-2.225c.934-.533 2.017-.8 3.25-.8 1.217 0 2.276.275 3.175.825.9.533 1.6 1.283 2.1 2.25.5.95.75 2.058.75 3.325v1.075H73.97c.034.85.35 1.542.95 2.075.6.533 1.334.8 2.2.8.884 0 1.534-.192 1.95-.575.417-.383.734-.808.95-1.275l2.576 1.35c-.234.433-.576.908-1.026 1.425-.433.5-1.016.933-1.75 1.3-.733.35-1.666.525-2.8.525zm-3.024-7.975h5.8c-.067-.717-.359-1.292-.876-1.725-.5-.433-1.158-.65-1.975-.65-.85 0-1.524.217-2.024.65-.5.433-.809 1.008-.925 1.725zm17.628 7.975c-1.2 0-2.291-.25-3.275-.75a5.664 5.664 0 01-2.3-2.175c-.566-.95-.85-2.1-.85-3.45v-.35c0-1.35.284-2.5.85-3.45A5.664 5.664 0 0188.35 16c.984-.5 2.075-.75 3.275-.75 1.184 0 2.2.208 3.05.625.85.417 1.534.992 2.05 1.725a5.771 5.771 0 011.05 2.45l-3.05.65a3.59 3.59 0 00-.45-1.35 2.5 2.5 0 00-1-.95c-.416-.233-.941-.35-1.575-.35-.633 0-1.208.142-1.725.425-.5.267-.9.675-1.2 1.225-.283.533-.425 1.192-.425 1.975v.25c0 .783.142 1.45.425 2 .3.533.7.942 1.2 1.225.517.267 1.092.4 1.725.4.95 0 1.667-.242 2.15-.725.5-.5.817-1.15.95-1.95l3.05.725a6.862 6.862 0 01-1.125 2.425c-.516.717-1.2 1.283-2.05 1.7-.85.417-1.866.625-3.05.625zm14.473 0c-1.233 0-2.325-.258-3.275-.775a5.767 5.767 0 01-2.2-2.225c-.516-.967-.774-2.1-.774-3.4v-.3c0-1.3.258-2.425.774-3.375a5.387 5.387 0 012.175-2.225c.934-.533 2.017-.8 3.25-.8 1.217 0 2.275.275 3.175.825.9.533 1.6 1.283 2.1 2.25.5.95.75 2.058.75 3.325v1.075h-9.025c.034.85.35 1.542.95 2.075.6.533 1.334.8 2.2.8.884 0 1.534-.192 1.95-.575a4.03 4.03 0 00.95-1.275l2.575 1.35c-.233.433-.575.908-1.025 1.425-.433.5-1.016.933-1.75 1.3-.733.35-1.666.525-2.8.525zm-3.025-7.975h5.8c-.066-.717-.358-1.292-.875-1.725-.5-.433-1.158-.65-1.975-.65-.85 0-1.525.217-2.025.65-.5.433-.808 1.008-.925 1.725zM114.876 28V15.6h3.1v1.625h.45c.2-.433.575-.842 1.125-1.225.55-.4 1.383-.6 2.5-.6.967 0 1.808.225 2.525.675a4.39 4.39 0 011.7 1.825c.4.767.6 1.667.6 2.7V28h-3.15v-7.15c0-.933-.233-1.633-.7-2.1-.45-.467-1.1-.7-1.95-.7-.967 0-1.717.325-2.25.975-.533.633-.8 1.525-.8 2.675V28h-3.15zm19.813 0c-.816 0-1.483-.25-2-.75-.5-.517-.75-1.2-.75-2.05v-7h-3.1v-2.6h3.1v-3.85h3.15v3.85h3.4v2.6h-3.4v6.45c0 .5.234.75.7.75h2.4V28h-3.5zm12.037.35c-1.2 0-2.291-.25-3.275-.75a5.67 5.67 0 01-2.3-2.175c-.566-.95-.85-2.1-.85-3.45v-.35c0-1.35.284-2.5.85-3.45a5.67 5.67 0 012.3-2.175c.984-.5 2.075-.75 3.275-.75 1.184 0 2.2.208 3.05.625.85.417 1.534.992 2.05 1.725a5.757 5.757 0 011.05 2.45l-3.05.65c-.066-.5-.216-.95-.45-1.35a2.494 2.494 0 00-1-.95c-.416-.233-.941-.35-1.575-.35a3.53 3.53 0 00-1.725.425c-.5.267-.9.675-1.2 1.225-.283.533-.425 1.192-.425 1.975v.25c0 .783.142 1.45.425 2 .3.533.7.942 1.2 1.225.517.267 1.092.4 1.725.4.95 0 1.667-.242 2.15-.725.5-.5.817-1.15.95-1.95l3.05.725a6.841 6.841 0 01-1.125 2.425c-.516.717-1.2 1.283-2.05 1.7-.85.417-1.866.625-3.05.625zm14.724 0c-1.234 0-2.342-.25-3.325-.75a5.616 5.616 0 01-2.325-2.175c-.567-.95-.85-2.092-.85-3.425v-.4c0-1.333.283-2.475.85-3.425A5.616 5.616 0 01158.125 16c.983-.5 2.091-.75 3.325-.75 1.233 0 2.341.25 3.325.75a5.628 5.628 0 012.325 2.175c.566.95.85 2.092.85 3.425v.4c0 1.333-.284 2.475-.85 3.425a5.628 5.628 0 01-2.325 2.175c-.984.5-2.092.75-3.325.75zm0-2.8c.966 0 1.766-.308 2.4-.925.633-.633.95-1.533.95-2.7v-.25c0-1.167-.317-2.058-.95-2.675-.617-.633-1.417-.95-2.4-.95-.967 0-1.767.317-2.4.95-.634.617-.95 1.508-.95 2.675v.25c0 1.167.316 2.067.95 2.7.633.617 1.433.925 2.4.925zm9.407 2.45V15.6h3.1v1.625h.45c.2-.433.575-.842 1.125-1.225.55-.4 1.384-.6 2.5-.6.967 0 1.809.225 2.525.675a4.384 4.384 0 011.7 1.825c.4.767.6 1.667.6 2.7V28h-3.15v-7.15c0-.933-.233-1.633-.7-2.1-.45-.467-1.1-.7-1.95-.7-.966 0-1.716.325-2.25.975-.533.633-.8 1.525-.8 2.675V28h-3.15zm20.556.35c-1.617 0-2.942-.35-3.975-1.05-1.034-.7-1.659-1.7-1.875-3l2.9-.75c.116.583.308 1.042.575 1.375a2.46 2.46 0 001.025.725c.416.133.866.2 1.35.2.733 0 1.275-.125 1.625-.375.35-.267.525-.592.525-.975a.962.962 0 00-.5-.875c-.334-.217-.867-.392-1.6-.525l-.7-.125a13.257 13.257 0 01-2.375-.675c-.717-.3-1.292-.708-1.725-1.225-.434-.517-.65-1.183-.65-2 0-1.233.45-2.175 1.35-2.825.9-.667 2.083-1 3.55-1 1.383 0 2.533.308 3.45.925.916.617 1.516 1.425 1.8 2.425l-2.925.9c-.134-.633-.409-1.083-.825-1.35-.4-.267-.9-.4-1.5-.4s-1.059.108-1.375.325a.95.95 0 00-.475.85c0 .4.166.7.5.9.333.183.783.325 1.35.425l.7.125c.933.167 1.775.392 2.525.675.766.267 1.366.658 1.8 1.175.45.5.675 1.183.675 2.05 0 1.3-.475 2.308-1.425 3.025-.934.7-2.192 1.05-3.775 1.05z" fill="#fff"/></svg>