<svg width="161" height="24" fill="none" xmlns="http://www.w3.org/2000/svg"><path d="M14.688 10.047c-1.24 0-2.382-.205-3.427-.615-1.397-.547-2.095-1.338-2.095-2.373 0-1.66 1.816-3.042 5.45-4.146 2.822-.85 5.356-1.274 7.602-1.274 2.246 0 3.369.737 3.369 2.212 0 .82-.81 1.61-2.432 2.373-1.425.673-2.617 1.01-3.574 1.01-.596 0-.893-.249-.893-.747 0-.312.248-.634.747-.966.459-.313.854-.47 1.186-.47.195 0 .293.07.293.206 0 .058-.132.156-.395.293-.303.156-.484.268-.542.337.087.078.21.117.366.117.508 0 1.357-.288 2.549-.864 1.289-.625 1.933-1.148 1.933-1.568 0-.39-.708-.586-2.124-.586-1.582 0-3.462.279-5.64.835-1.445.381-2.778.82-3.998 1.319-1.973.82-2.96 1.587-2.96 2.3 0 .859 1.363 1.464 4.087 1.816 1.563.205 3.301.307 5.215.307.39 0 .586.147.586.44 0 .537-.63.835-1.89.893A29.003 29.003 0 007.13 13.578c-3.565 1.65-5.347 3.3-5.347 4.951 0 1.612 1.382 2.417 4.146 2.417 1.65 0 3.252-.37 4.804-1.113 1.045-.498 2.08-1.182 3.106-2.05.879-.743 1.328-1.114 1.348-1.114.224 0 .336.273.336.82 0 .909-1.005 1.948-3.017 3.12-2.012 1.172-4.043 1.758-6.094 1.758-3.74 0-5.61-1.489-5.61-4.468 0-1.933 1.328-3.608 3.984-5.024 1.777-.947 3.97-1.704 6.577-2.27.733-.186 1.841-.372 3.325-.557zm3.12 9.448C15.779 21.165 14.235 22 13.18 22c-.117 0-.176-.059-.176-.176 0-.176.098-.288.293-.337.361-.088.918-.283 1.67-.586.703-.38 2.49-1.767 5.361-4.16 2.725-2.265 4.121-3.398 4.19-3.398.224 0 .444.097.659.293.224.195.337.405.337.63 0 .713-.557 1.967-1.67 3.764-.967 1.553-1.812 2.715-2.534 3.487.42 0 .63.078.63.234 0 .195-.206.293-.616.293-.107 0-.268-.02-.483-.059a2.72 2.72 0 00-.469-.058c-.078 0-.195.014-.352.044a2.126 2.126 0 01-.351.044c-1.24 0-1.86-.84-1.86-2.52zm2.33 1.274c.683-.566 1.435-1.542 2.256-2.93.761-1.288 1.294-2.426 1.596-3.412l-5.244 4.262c.361.059.664.342.908.85l.484 1.23zm-.425.455l-.41-1.158c-.215-.566-.425-.85-.63-.85-.215 0-.322.167-.322.499 0 .332.097.674.293 1.025.224.4.488.6.79.6a.35.35 0 00.279-.116zm13.74-8.79l-5.273.206c-.293 0-.44-.079-.44-.235 0-.127.24-.224.718-.293.674-.107 1.621-.2 2.842-.278 1.357-.078 2.31-.151 2.856-.22l2.095-2.505c1.123-1.328 1.802-1.992 2.036-1.992.293 0 .44.186.44.557 0 .4-.89 1.714-2.666 3.94a39.593 39.593 0 012.548-.102c.45 0 .674.088.674.263 0 .196-.542.327-1.626.396l-2.226.073-3.267 4.087c-2.06 2.686-3.09 4.287-3.09 4.805 0 .244.165.37.497.38.332 0 .498.079.498.235 0 .185-.214.278-.644.278-.87 0-1.304-.351-1.304-1.054 0-.557.283-1.353.85-2.388l1.274-2.139-4.336 3.413C24.103 21.287 22.711 22 21.734 22c-.117 0-.175-.064-.175-.19 0-.166.097-.274.293-.323.332-.068.834-.239 1.508-.512.655-.342 2.11-1.397 4.366-3.165 1.67-1.298 2.72-2.143 3.149-2.534.771-.703 1.63-1.65 2.578-2.841zm5.083 6.211c3.535-3.144 5.899-4.716 7.09-4.716.527 0 .791.278.791.835 0 .595-.84 1.728-2.52 3.398-1.67 1.67-2.504 2.652-2.504 2.944 0 .274.268.41.805.41.137 0 .205.079.205.235 0 .185-.239.278-.718.278-.85 0-1.274-.356-1.274-1.069 0-.82.654-1.9 1.963-3.237 1.602-1.641 2.466-2.574 2.593-2.798.01-.117-.049-.176-.176-.176-.537 0-1.904.933-4.101 2.798-1.641 1.387-2.96 2.578-3.956 3.574-.4.4-.727.694-.981.879-.147 0-.288-.093-.425-.278-.127-.186-.19-.357-.19-.513 0-.225.669-1.186 2.007-2.886l2.329-2.93c-.948.89-2.13 1.89-3.545 3.003l-2.813 2.154C31.7 21.517 30.611 22 29.85 22c-.118 0-.176-.059-.176-.176 0-.176.098-.288.293-.337.81-.205 1.523-.498 2.139-.879 1.142-.703 2.856-2.021 5.141-3.955l2.96-2.505c.624-.527 2.358-2.456 5.2-5.786 2.558-2.998 3.96-4.497 4.203-4.497.352 0 .528.22.528.66 0 .302-.982 1.61-2.945 3.925l-8.657 10.195zm9.111.982c-.488.117-1.406.566-2.753 1.348-1.192.683-2.095 1.025-2.71 1.025-.118 0-.176-.064-.176-.19 0-.176.127-.284.38-.323.596-.097 1.436-.464 2.52-1.098 1.192-.684 2.163-1.114 2.915-1.29.45-1.083 1.377-2.221 2.783-3.412 1.495-1.28 2.769-1.92 3.824-1.92.78 0 1.172.333 1.172.997 0 .869-.826 1.816-2.476 2.841a17.552 17.552 0 01-3.72 1.788c-.137.312-.206.64-.206.981 0 .508.176.84.527.996.176.069.508.112.997.132.351.01.527.093.527.249 0 .244-.6.366-1.802.366-1.27 0-1.904-.552-1.904-1.655 0-.254.034-.532.102-.835zm1.934-.82c.898-.44 1.846-1.035 2.842-1.787 1.328-.987 1.992-1.768 1.992-2.344 0-.235-.107-.352-.322-.352-.635 0-1.5.586-2.593 1.758-.977 1.064-1.616 1.973-1.919 2.725zm9.727-3.282a6.129 6.129 0 01-.074-.585c0-.264.313-.674.938-1.231.635-.566 1.07-.85 1.304-.85.224 0 .337.103.337.308 0 .176-.123.469-.367.879 1.104 0 1.656.44 1.656 1.318 0 .694-.713 1.802-2.14 3.325-1.425 1.514-2.138 2.364-2.138 2.55 0 .175.093.273.279.292l.483-.014c.137 0 .205.078.205.234 0 .195-.283.293-.85.293-.722 0-1.084-.322-1.084-.967 0-.635.362-1.426 1.084-2.373.45-.596 1.119-1.333 2.007-2.212.723-.713 1.084-1.103 1.084-1.172 0-.146-.083-.22-.249-.22-.146 0-.425.06-.835.176-.41.108-.654.196-.732.264C55.675 19.847 52.613 22 51.03 22c-.117 0-.175-.064-.175-.19 0-.166.131-.274.395-.323.322-.058.747-.21 1.274-.454.791-.351 1.973-1.186 3.545-2.505 1.397-1.162 2.476-2.163 3.238-3.003zm35.874-3.076l1.42.015c.733.059 1.1.254 1.1.586 0 .166-.133.249-.396.249-1.28 0-2.251.03-2.915.088l-5.684 6.855-.776 1.026c-.41.488-.742.732-.996.732-.176 0-.347-.083-.513-.249-.156-.166-.234-.337-.234-.513 0-.312.918-1.63 2.753-3.955l3.15-3.867-7.544.293c-2.803 2.92-4.717 4.834-5.742 5.742-2.89 2.559-5.161 3.838-6.812 3.838-.732 0-1.338-.23-1.816-.688-.479-.46-.718-1.055-.718-1.787 0-1.749 1.113-3.472 3.34-5.171 2.236-1.71 5.674-2.637 10.312-2.784 6.27-6.777 9.42-10.341 9.449-10.693l-.088-.088c-.674.02-2.13.728-4.366 2.124l-3.34 2.095c-.126 0-.19-.064-.19-.19 0-.45 1.348-1.436 4.043-2.96 2.695-1.533 4.4-2.3 5.112-2.3.254 0 .508.098.762.294.254.195.381.415.381.659 0 .351-.771 1.372-2.314 3.061l-7.237 7.925 7.603-.337c6.055-6.982 9.311-10.473 9.77-10.473.42 0 .63.17.63.512 0 .254-.351.777-1.055 1.568a215.29 215.29 0 00-7.09 8.393zM82.32 13.74c-2.304.068-4.155.37-5.551.907-1.602.606-3.116 1.685-4.541 3.238-1.24 1.357-1.86 2.456-1.86 3.296 0 .742.434 1.113 1.303 1.113.556 0 1.235-.244 2.036-.732.908-.547 2.388-1.768 4.439-3.663 1.865-1.718 3.256-3.105 4.174-4.16zm15.498 4.35l-3.017 2.3C93.258 21.463 92.106 22 91.344 22c-.117 0-.176-.059-.176-.176 0-.185.098-.298.293-.337.596-.107 1.103-.278 1.523-.512.733-.4 1.924-1.255 3.575-2.564l3.867-3.179c.742-.654 1.196-.981 1.362-.981.244 0 .513.137.806.41.566-.43 1.069-.644 1.509-.644.664 0 .996.356.996 1.069 0 1.064-.85 2.515-2.549 4.35-1.729 1.856-3.125 2.784-4.19 2.784-.996 0-1.494-.523-1.494-1.568 0-.547.318-1.401.952-2.563zm4.966.03c.362-.343.723-.806 1.084-1.392.401-.674.601-1.211.601-1.612 0-.37-.161-.556-.484-.556-.478 0-.962.302-1.45.908-.478.595-.718 1.138-.718 1.626 0 .547.323.888.967 1.025zm-1.435-1.832c-1.993 1.738-2.989 3.154-2.989 4.248 0 .469.225.703.674.703.733 0 1.875-.883 3.428-2.651-.82-.195-1.231-.723-1.231-1.582 0-.225.04-.464.118-.718zm10.078-.776l-4.19 3.428c-2.49 2.04-4.272 3.061-5.346 3.061-.118 0-.176-.059-.176-.176 0-.166.132-.278.395-.337.401-.088.84-.244 1.319-.468.605-.274 1.972-1.26 4.101-2.96.967-.761 2.383-1.957 4.248-3.588.723-.703 1.211-1.055 1.465-1.055.176 0 .357.093.542.278.195.186.293.366.293.542 0 .235-.727 1.28-2.182 3.135-1.456 1.856-2.183 2.96-2.183 3.31 0 .284.112.425.337.425.537 0 1.743-1.132 3.618-3.398 1.875-2.275 2.949-3.413 3.223-3.413.341 0 .512.17.512.513 0 .224-.542 1.108-1.626 2.651-1.074 1.533-1.611 2.637-1.611 3.31 0 .342.142.513.425.513.488 0 1.562-.942 3.222-2.827-.214-.195-.322-.474-.322-.835 0-.732.415-1.616 1.245-2.651.869-1.074 1.646-1.612 2.329-1.612.235 0 .352.142.352.425 0 .889-.952 2.461-2.856 4.717-1.934 2.295-3.345 3.442-4.234 3.442-.82 0-1.23-.424-1.23-1.274 0-.596.224-1.343.674-2.241-.967 1.094-1.602 1.787-1.905 2.08-.957.928-1.714 1.392-2.27 1.392-.703 0-1.055-.381-1.055-1.143 0-.732.366-1.665 1.099-2.798l1.787-2.446zm6.87 2.358c1.572-1.797 2.358-2.973 2.358-3.53 0-.137-.053-.205-.161-.205-.361 0-.854.444-1.479 1.333-.625.879-.938 1.538-.938 1.977 0 .205.073.347.22.425zm4.219 1.055c-2.608 2.05-4.405 3.076-5.391 3.076-.117 0-.176-.064-.176-.19 0-.176.117-.284.352-.323.918-.146 2.187-.854 3.808-2.124l1.89-1.48 3.032-2.416c1.387-.957 2.573-1.436 3.56-1.436.732 0 1.142.367 1.23 1.099.381-.361.645-.542.791-.542.323 0 .484.132.484.395 0 .342-.752 1.387-2.256 3.135-1.494 1.748-2.241 2.769-2.241 3.062 0 .205.161.312.483.322.322.01.483.093.483.249 0 .195-.332.293-.996.293-.654 0-.981-.288-.981-.864 0-.46.264-1.114.791-1.963l-1.817 1.538c-.888.664-1.596.996-2.124.996-.839 0-1.259-.425-1.259-1.274 0-.47.112-.987.337-1.553zm7.28-4.292c-.576 0-1.768.86-3.574 2.578-1.807 1.719-2.71 2.866-2.71 3.442 0 .264.127.396.381.396.556 0 1.748-.84 3.574-2.52 1.836-1.69 2.754-2.827 2.754-3.413 0-.322-.142-.483-.425-.483zm6.826.893a6.027 6.027 0 01-.073-.585c0-.264.312-.674.937-1.231.635-.566 1.07-.85 1.304-.85.225 0 .337.103.337.308 0 .176-.122.469-.366.879 1.103 0 1.655.44 1.655 1.318 0 .694-.713 1.802-2.139 3.325-1.425 1.514-2.138 2.364-2.138 2.55 0 .175.092.273.278.292l.483-.014c.137 0 .205.078.205.234 0 .195-.283.293-.849.293-.723 0-1.084-.322-1.084-.967 0-.635.361-1.426 1.084-2.373.449-.596 1.118-1.333 2.007-2.212.722-.713 1.084-1.103 1.084-1.172 0-.146-.083-.22-.249-.22-.147 0-.425.06-.835.176-.41.108-.655.196-.733.264-4.541 4.307-7.602 6.46-9.184 6.46-.117 0-.176-.064-.176-.19 0-.166.132-.274.395-.323.323-.058.747-.21 1.275-.454.791-.351 1.972-1.186 3.545-2.505 1.396-1.162 2.475-2.163 3.237-3.003zm6.196 2.96l-2.768 2.123c-1.367.928-2.427 1.392-3.179 1.392-.117 0-.176-.059-.176-.176 0-.176.098-.288.293-.337a7.351 7.351 0 002.051-.835c.928-.547 2.227-1.552 3.897-3.017 1.679-1.465 2.973-2.466 3.881-3.003.645-.381 1.226-.572 1.744-.572.869 0 1.323.362 1.362 1.085a147.57 147.57 0 014.98-5.918c2.852-3.243 4.556-4.864 5.113-4.864.312 0 .468.176.468.528 0 .293-.395.854-1.186 1.684-1.475 1.533-3.672 4.014-6.592 7.442-3.584 4.209-5.376 6.587-5.376 7.133 0 .225.161.342.483.352.323.01.484.093.484.249 0 .195-.235.293-.703.293-.772 0-1.157-.317-1.157-.952 0-.508.322-1.299.966-2.373-1.924 2.05-3.291 3.076-4.101 3.076-.752 0-1.128-.4-1.128-1.201 0-.45.215-1.153.644-2.11zm.894 2.548c.557 0 1.66-.83 3.31-2.49 1.651-1.67 2.476-2.783 2.476-3.34 0-.283-.132-.425-.395-.425-.684 0-1.802.81-3.355 2.432-1.553 1.621-2.329 2.793-2.329 3.516 0 .205.098.307.293.307z" fill="#001F3F"/></svg>