<svg width="39" height="40" fill="none" xmlns="http://www.w3.org/2000/svg"><path d="M2.977 35.39h8.65V17.893l-8.65 8.486v9.01z" fill="#FF5A30"/><path d="M2.977 35.39h8.65V17.893l-8.65 8.486v9.01zm32.868 0h-8.65V17.893l8.65 8.486v9.01z" fill="#FF5A30"/><path d="M2.977 35.39h8.65V17.893l-8.65 8.486v9.01zm8.649-32.735h-8.65v17.497l8.65-8.486V2.655zm9.774 0h-3.976v13.108H21.4V2.655zm17.424 34.687H0v2.655h38.824v-2.655zm0-37.342H0v2.655h38.824V0zm-4.816 2.655h-.739v7.14h.74v-7.14z" fill="#FF5A30"/><path d="M4.817 2.655h-.739v2.588h.739V2.655z" fill="#FF5A30"/><path d="M4.08 4.519v.725h29.19v-.725H4.08zm30.625 5.276h-2.1v2.54h2.1v-2.54zm-1.384 2.544l-1.424 1.974 1.737 1.45 1.564-1.42-1.455.736-1.195-.862 1.372-1.878h-.599zm-19.538 5.554V35.39h11.258V17.893H13.783zm3.641 13.363h-1.62v-2.334h1.62v2.334zm0-8.997h-1.62v-2.333h1.62v2.333zm2.8 4.382h-1.62v-2.333h1.62v2.333zm2.899 4.615h-1.621v-2.334h1.62v2.334zm0-8.997h-1.621v-2.333h1.62v2.333z" fill="#FF5A30"/></svg>