<svg width="189" height="117" fill="none" xmlns="http://www.w3.org/2000/svg"><rect width="189" height="117" rx="5" fill="#fff"/><path d="M15.4 34l3.456-11.2h2.368L24.68 34h-1.392l-.864-2.832h-4.768L16.792 34H15.4zm2.592-4.048h4.08l-1.92-6.336h-.224l-1.936 6.336zM28.093 34l-2.8-7.824h1.344l2.352 6.88h.224l2.352-6.88h1.344L30.11 34h-2.016zm9.897.224c-.79 0-1.483-.165-2.08-.496a3.576 3.576 0 01-1.392-1.424c-.33-.608-.496-1.312-.496-2.112V30c0-.81.166-1.52.496-2.128a3.5 3.5 0 011.376-1.408c.587-.341 1.259-.512 2.016-.512.736 0 1.387.16 1.952.48a3.29 3.29 0 011.328 1.344c.32.587.48 1.275.48 2.064v.576h-6.384c.032.843.304 1.504.816 1.984.512.47 1.152.704 1.92.704.672 0 1.19-.155 1.552-.464.363-.31.64-.677.832-1.104l1.088.528a4.55 4.55 0 01-.672.992 3.31 3.31 0 01-1.104.832c-.448.224-1.024.336-1.728.336zm-2.688-4.848h5.088c-.043-.725-.293-1.29-.752-1.696-.448-.405-1.024-.608-1.728-.608-.714 0-1.301.203-1.76.608-.459.405-.741.97-.848 1.696zM43.875 34v-7.824h1.232v.96h.224c.138-.341.352-.592.64-.752.288-.16.667-.24 1.136-.24h.928v1.152h-1.008c-.566 0-1.024.16-1.376.48-.342.31-.512.795-.512 1.456V34h-1.264zm5.366-3.872v-.224c0-.821.165-1.525.496-2.112a3.5 3.5 0 011.344-1.36 3.703 3.703 0 011.856-.48c.821 0 1.45.16 1.888.48.448.31.778.656.992 1.04h.224v-1.296h1.2v9.648c0 .427-.117.763-.352 1.008s-.576.368-1.024.368h-5.312v-1.12h4.976c.32 0 .48-.16.48-.48v-2.976h-.224a2.86 2.86 0 01-.544.688 2.82 2.82 0 01-.912.56c-.373.139-.837.208-1.392.208-.672 0-1.29-.16-1.856-.48a3.504 3.504 0 01-1.344-1.36c-.33-.597-.496-1.301-.496-2.112zm4.032 2.832c.81 0 1.466-.256 1.968-.768.512-.512.768-1.216.768-2.112v-.128c0-.907-.256-1.61-.768-2.112-.502-.512-1.157-.768-1.968-.768-.8 0-1.462.256-1.984.768-.512.501-.768 1.205-.768 2.112v.128c0 .896.256 1.6.768 2.112.523.512 1.184.768 1.984.768zm10.201 1.264c-.789 0-1.482-.165-2.08-.496a3.576 3.576 0 01-1.392-1.424c-.33-.608-.495-1.312-.495-2.112V30c0-.81.165-1.52.495-2.128a3.503 3.503 0 011.377-1.408c.586-.341 1.258-.512 2.016-.512.735 0 1.386.16 1.952.48a3.29 3.29 0 011.328 1.344c.32.587.48 1.275.48 2.064v.576H60.77c.032.843.304 1.504.816 1.984.513.47 1.153.704 1.92.704.672 0 1.19-.155 1.552-.464.363-.31.64-.677.832-1.104l1.088.528c-.16.33-.383.661-.671.992-.278.33-.646.608-1.105.832-.448.224-1.023.336-1.727.336zm-2.688-4.848h5.088c-.042-.725-.293-1.29-.751-1.696-.449-.405-1.025-.608-1.729-.608-.714 0-1.3.203-1.76.608-.458.405-.74.97-.848 1.696zM73.47 34v-7.824h1.264V34H73.47zm.64-9.04a.987.987 0 01-.704-.272.933.933 0 01-.272-.688c0-.288.09-.523.272-.704a.987.987 0 01.704-.272c.277 0 .506.09.688.272.181.181.272.416.272.704a.934.934 0 01-.272.688.932.932 0 01-.688.272zM77.39 34v-7.824h1.231v1.328h.225c.17-.373.458-.71.864-1.008.415-.31 1.023-.464 1.823-.464.587 0 1.11.123 1.569.368a2.75 2.75 0 011.12 1.088c.277.48.415 1.072.415 1.776V34h-1.264v-4.64c0-.779-.197-1.344-.591-1.696-.385-.352-.907-.528-1.569-.528-.757 0-1.376.245-1.855.736-.47.49-.704 1.221-.704 2.192V34H77.39zm13.412.224c-.757 0-1.44-.16-2.048-.48a3.685 3.685 0 01-1.424-1.408c-.341-.608-.512-1.328-.512-2.16V30c0-.843.17-1.563.512-2.16a3.573 3.573 0 011.424-1.392c.608-.33 1.29-.496 2.048-.496.747 0 1.381.139 1.904.416.533.277.95.645 1.248 1.104.31.459.507.95.592 1.472l-1.232.256a2.624 2.624 0 00-.384-1.056 2.1 2.1 0 00-.816-.768c-.352-.192-.784-.288-1.296-.288-.523 0-.992.117-1.408.352-.405.235-.73.57-.976 1.008-.235.437-.352.96-.352 1.568v.144c0 .608.117 1.13.352 1.568.245.437.57.773.976 1.008.416.235.885.352 1.408.352.779 0 1.37-.203 1.776-.608.416-.405.672-.907.768-1.504l1.248.272c-.117.512-.33.997-.64 1.456-.31.459-.73.827-1.264 1.104-.523.277-1.157.416-1.904.416zM96.766 34v-7.824h1.231v.96h.225c.138-.341.352-.592.64-.752.288-.16.666-.24 1.136-.24h.928v1.152h-1.008c-.566 0-1.025.16-1.377.48-.34.31-.511.795-.511 1.456V34h-1.264zm9.334.224c-.79 0-1.483-.165-2.08-.496a3.567 3.567 0 01-1.392-1.424c-.331-.608-.496-1.312-.496-2.112V30c0-.81.165-1.52.496-2.128a3.492 3.492 0 011.376-1.408c.586-.341 1.258-.512 2.016-.512.736 0 1.386.16 1.952.48.565.31 1.008.757 1.328 1.344.32.587.48 1.275.48 2.064v.576h-6.384c.032.843.304 1.504.816 1.984.512.47 1.152.704 1.92.704.672 0 1.189-.155 1.552-.464.362-.31.64-.677.832-1.104l1.088.528a4.55 4.55 0 01-.672.992 3.33 3.33 0 01-1.104.832c-.448.224-1.024.336-1.728.336zm-2.688-4.848h5.088c-.043-.725-.294-1.29-.752-1.696-.448-.405-1.024-.608-1.728-.608-.715 0-1.302.203-1.76.608-.459.405-.742.97-.848 1.696zm11.724 4.848c-.97 0-1.792-.224-2.464-.672-.661-.448-1.061-1.157-1.2-2.128l1.2-.272c.086.512.246.917.48 1.216.235.288.523.496.864.624.352.117.726.176 1.12.176.587 0 1.051-.117 1.392-.352.342-.235.512-.55.512-.944 0-.405-.165-.688-.496-.848-.32-.17-.762-.31-1.328-.416l-.656-.112a5.922 5.922 0 01-1.376-.4 2.527 2.527 0 01-.992-.736c-.245-.31-.368-.699-.368-1.168 0-.704.272-1.253.816-1.648.544-.395 1.264-.592 2.16-.592.886 0 1.6.203 2.144.608.555.395.912.955 1.072 1.68l-1.184.304c-.096-.565-.325-.96-.688-1.184-.362-.235-.81-.352-1.344-.352-.533 0-.954.101-1.264.304-.309.192-.464.48-.464.864 0 .373.144.65.432.832.299.17.694.299 1.184.384l.656.112c.555.096 1.051.23 1.488.4.448.16.8.395 1.056.704.267.31.4.715.4 1.216 0 .768-.288 1.36-.864 1.776-.565.416-1.328.624-2.288.624zm8.87 0c-.79 0-1.483-.165-2.08-.496a3.567 3.567 0 01-1.392-1.424c-.331-.608-.496-1.312-.496-2.112V30c0-.81.165-1.52.496-2.128a3.492 3.492 0 011.376-1.408c.586-.341 1.258-.512 2.016-.512.736 0 1.386.16 1.952.48.565.31 1.008.757 1.328 1.344.32.587.48 1.275.48 2.064v.576h-6.384c.032.843.304 1.504.816 1.984.512.47 1.152.704 1.92.704.672 0 1.189-.155 1.552-.464.362-.31.64-.677.832-1.104l1.088.528a4.55 4.55 0 01-.672.992 3.33 3.33 0 01-1.104.832c-.448.224-1.024.336-1.728.336zm-2.688-4.848h5.088c-.043-.725-.294-1.29-.752-1.696-.448-.405-1.024-.608-1.728-.608-.715 0-1.302.203-1.76.608-.459.405-.742.97-.848 1.696zm15.834 4.848c-.971 0-1.792-.224-2.464-.672-.661-.448-1.061-1.157-1.2-2.128l1.2-.272c.085.512.245.917.48 1.216.235.288.523.496.864.624.352.117.725.176 1.12.176.587 0 1.051-.117 1.392-.352.341-.235.512-.55.512-.944 0-.405-.165-.688-.496-.848-.32-.17-.763-.31-1.328-.416l-.656-.112a5.922 5.922 0 01-1.376-.4 2.52 2.52 0 01-.992-.736c-.245-.31-.368-.699-.368-1.168 0-.704.272-1.253.816-1.648.544-.395 1.264-.592 2.16-.592.885 0 1.6.203 2.144.608.555.395.912.955 1.072 1.68l-1.184.304c-.096-.565-.325-.96-.688-1.184-.363-.235-.811-.352-1.344-.352s-.955.101-1.264.304c-.309.192-.464.48-.464.864 0 .373.144.65.432.832.299.17.693.299 1.184.384l.656.112c.555.096 1.051.23 1.488.4.448.16.8.395 1.056.704.267.31.4.715.4 1.216 0 .768-.288 1.36-.864 1.776-.565.416-1.328.624-2.288.624zm7.623 0a3.74 3.74 0 01-1.488-.288c-.448-.192-.8-.47-1.056-.832-.256-.363-.384-.805-.384-1.328 0-.533.128-.97.384-1.312a2.265 2.265 0 011.056-.784 3.976 3.976 0 011.504-.272h2.64v-.576c0-.555-.165-.992-.496-1.312-.32-.32-.8-.48-1.44-.48-.629 0-1.12.155-1.472.464-.352.299-.592.704-.72 1.216l-1.184-.384c.128-.437.331-.832.608-1.184.277-.363.645-.65 1.104-.864.469-.224 1.029-.336 1.68-.336 1.003 0 1.781.261 2.336.784.555.512.832 1.237.832 2.176v3.536c0 .32.149.48.448.48h.72V34h-1.104c-.352 0-.635-.096-.848-.288-.213-.203-.32-.47-.32-.8v-.08h-.192a3.803 3.803 0 01-.48.64c-.192.213-.459.39-.8.528-.341.15-.784.224-1.328.224zm.144-1.088c.747 0 1.349-.219 1.808-.656.469-.448.704-1.072.704-1.872v-.176h-2.592c-.501 0-.917.112-1.248.336-.32.213-.48.539-.48.976 0 .437.165.779.496 1.024.341.245.779.368 1.312.368zm6.659.864V22.8h1.264V34h-1.264zm7.506.224c-.789 0-1.483-.165-2.08-.496a3.58 3.58 0 01-1.392-1.424c-.331-.608-.496-1.312-.496-2.112V30c0-.81.165-1.52.496-2.128a3.498 3.498 0 011.376-1.408c.587-.341 1.259-.512 2.016-.512.736 0 1.387.16 1.952.48.565.31 1.008.757 1.328 1.344.32.587.48 1.275.48 2.064v.576h-6.384c.032.843.304 1.504.816 1.984.512.47 1.152.704 1.92.704.672 0 1.189-.155 1.552-.464.363-.31.64-.677.832-1.104l1.088.528a4.55 4.55 0 01-.672.992 3.31 3.31 0 01-1.104.832c-.448.224-1.024.336-1.728.336zm-2.688-4.848h5.088c-.043-.725-.293-1.29-.752-1.696-.448-.405-1.024-.608-1.728-.608-.715 0-1.301.203-1.76.608-.459.405-.741.97-.848 1.696zm11.725 4.848c-.971 0-1.792-.224-2.464-.672-.662-.448-1.062-1.157-1.2-2.128l1.2-.272c.085.512.245.917.48 1.216.234.288.522.496.864.624.352.117.725.176 1.12.176.586 0 1.05-.117 1.392-.352.341-.235.512-.55.512-.944 0-.405-.166-.688-.496-.848-.32-.17-.763-.31-1.328-.416l-.656-.112a5.908 5.908 0 01-1.376-.4 2.52 2.52 0 01-.992-.736c-.246-.31-.368-.699-.368-1.168 0-.704.272-1.253.816-1.648.544-.395 1.264-.592 2.16-.592.885 0 1.6.203 2.144.608.554.395.912.955 1.072 1.68l-1.184.304c-.096-.565-.326-.96-.688-1.184-.363-.235-.811-.352-1.344-.352-.534 0-.955.101-1.264.304-.31.192-.464.48-.464.864 0 .373.144.65.432.832.298.17.693.299 1.184.384l.656.112c.554.096 1.05.23 1.488.4.448.16.8.395 1.056.704.266.31.4.715.4 1.216 0 .768-.288 1.36-.864 1.776-.566.416-1.328.624-2.288.624zM17.432 58.112a2.57 2.57 0 01-1.096-.224 1.75 1.75 0 01-.752-.648c-.176-.283-.264-.619-.264-1.008v-.144h.84v.128c0 .352.115.632.344.84.235.203.544.304.928.304s.683-.096.896-.288a.937.937 0 00.32-.728v-.072c0-.208-.05-.376-.152-.504a.864.864 0 00-.408-.28 1.631 1.631 0 00-.576-.096h-1.016v-.968l1.968-1.16v-.112h-3.008V52.4h3.92v1.136l-1.88 1.12v.112h.344c.283 0 .55.053.8.16.25.107.453.27.608.488.16.219.24.496.24.832v.096c0 .357-.085.67-.256.936a1.74 1.74 0 01-.72.616c-.31.144-.67.216-1.08.216zm4.996 0c-.651 0-1.171-.184-1.56-.552-.384-.373-.576-.933-.576-1.68v-1.36c0-.73.192-1.285.576-1.664.389-.379.909-.568 1.56-.568.656 0 1.176.19 1.56.568.389.379.584.933.584 1.664v1.36c0 .747-.195 1.307-.584 1.68-.384.368-.904.552-1.56.552zm0-.752c.442 0 .77-.125.984-.376.213-.256.32-.613.32-1.072v-1.44c0-.459-.115-.81-.344-1.056-.23-.25-.55-.376-.96-.376-.416 0-.736.128-.96.384-.224.25-.336.6-.336 1.048v1.44c0 .47.106.83.32 1.08.218.245.544.368.976.368z" fill="#686884"/><rect x="30" y="55" width="144" height="1" rx=".5" fill="#E9E9E9"/><path d="M15.384 79v-.632c0-.39.067-.71.2-.96s.323-.453.568-.608c.25-.16.552-.293.904-.4l.488-.152a2.31 2.31 0 00.56-.256c.16-.101.283-.227.368-.376.085-.155.128-.333.128-.536v-.032c0-.315-.107-.56-.32-.736-.213-.181-.493-.272-.84-.272-.357 0-.648.096-.872.288-.219.192-.328.475-.328.848v.128h-.832v-.12c0-.405.088-.747.264-1.024.176-.283.419-.499.728-.648.31-.15.656-.224 1.04-.224s.725.072 1.024.216c.304.144.541.347.712.608.176.261.264.568.264.92v.072c0 .363-.072.664-.216.904-.144.24-.344.437-.6.592-.25.155-.541.285-.872.392l-.472.144a2.82 2.82 0 00-.608.248.91.91 0 00-.336.312.952.952 0 00-.104.472v.08h3.16V79h-4.008zm6.973.112c-.65 0-1.17-.184-1.56-.552-.384-.373-.576-.933-.576-1.68v-1.36c0-.73.192-1.285.576-1.664.39-.379.91-.568 1.56-.568.656 0 1.176.19 1.56.568.39.379.584.933.584 1.664v1.36c0 .747-.194 1.307-.584 1.68-.384.368-.904.552-1.56.552zm0-.752c.443 0 .77-.125.984-.376.214-.256.32-.613.32-1.072v-1.44c0-.459-.114-.81-.344-1.056-.23-.25-.55-.376-.96-.376-.416 0-.736.128-.96.384-.224.25-.336.6-.336 1.048v1.44c0 .47.107.83.32 1.08.219.245.544.368.976.368z" fill="#686884"/><rect x="30" y="76" width="144" height="1" rx=".5" fill="#E9E9E9"/><path d="M17.056 100v-5.008h-.128l-.92 1.888h-.888l1.24-2.48h1.536v5.6h-.84zm3.997.112c-.651 0-1.171-.184-1.56-.552-.384-.373-.576-.933-.576-1.68v-1.36c0-.73.192-1.285.576-1.664.389-.379.909-.568 1.56-.568.656 0 1.176.19 1.56.568.389.379.584.933.584 1.664v1.36c0 .747-.195 1.307-.584 1.68-.384.368-.904.552-1.56.552zm0-.752c.442 0 .77-.125.984-.376.213-.256.32-.613.32-1.072v-1.44c0-.459-.115-.81-.344-1.056-.23-.25-.55-.376-.96-.376-.416 0-.736.128-.96.384-.224.25-.336.6-.336 1.048v1.44c0 .47.106.83.32 1.08.218.245.544.368.976.368z" fill="#686884"/><rect x="30" y="97" width="144" height="1" rx=".5" fill="#E9E9E9"/><path d="M35 73.5a2.5 2.5 0 015 0V98h-5V73.5z" fill="url(#paint0_linear_1_6026)"/><path d="M56 63.5a2.5 2.5 0 015 0V98h-5V63.5z" fill="url(#paint1_linear_1_6026)"/><path d="M77 53.5a2.5 2.5 0 015 0V98h-5V53.5z" fill="url(#paint2_linear_1_6026)"/><path d="M98 60.5a2.5 2.5 0 015 0V98h-5V60.5z" fill="url(#paint3_linear_1_6026)"/><path d="M140 53.5a2.5 2.5 0 115 0V98h-5V53.5z" fill="url(#paint4_linear_1_6026)"/><path d="M161 64.5a2.5 2.5 0 115 0V98h-5V64.5z" fill="url(#paint5_linear_1_6026)"/><path d="M119 48.5a2.5 2.5 0 115 0V98h-5V48.5z" fill="url(#paint6_linear_1_6026)"/><defs><linearGradient id="paint0_linear_1_6026" x1="37.5" y1="71" x2="37.5" y2="98" gradientUnits="userSpaceOnUse"><stop offset=".347" stop-color="$color-black"/><stop offset="1" stop-color="#AEB4EB"/></linearGradient><linearGradient id="paint1_linear_1_6026" x1="58.5" y1="61" x2="58.5" y2="98" gradientUnits="userSpaceOnUse"><stop offset=".347" stop-color="#FF5A30"/><stop offset="1" stop-color="#E3D4AC" stop-opacity="0"/></linearGradient><linearGradient id="paint2_linear_1_6026" x1="79.5" y1="51" x2="79.5" y2="98" gradientUnits="userSpaceOnUse"><stop offset=".463" stop-color="$color-black"/><stop offset="1" stop-color="#526776" stop-opacity=".13"/></linearGradient><linearGradient id="paint3_linear_1_6026" x1="100.5" y1="58" x2="100.5" y2="98" gradientUnits="userSpaceOnUse"><stop offset=".463" stop-color="#FF5A30"/><stop offset="1" stop-color="#E6D29F" stop-opacity="0"/></linearGradient><linearGradient id="paint4_linear_1_6026" x1="142.5" y1="51" x2="142.5" y2="98" gradientUnits="userSpaceOnUse"><stop offset=".463" stop-color="#FF5A30"/><stop offset="1" stop-color="#E9CF8D" stop-opacity="0"/></linearGradient><linearGradient id="paint5_linear_1_6026" x1="163.5" y1="62" x2="163.5" y2="98" gradientUnits="userSpaceOnUse"><stop offset=".463" stop-color="$color-black"/><stop offset="1" stop-color="#CDD2E4"/></linearGradient><linearGradient id="paint6_linear_1_6026" x1="121.5" y1="46" x2="121.5" y2="98" gradientUnits="userSpaceOnUse"><stop offset=".463" stop-color="$color-black"/><stop offset="1" stop-color="#DDE1E4"/></linearGradient></defs></svg>